<svg xmlns="http://www.w3.org/2000/svg" xmlns:xlink="http://www.w3.org/1999/xlink" viewBox="0 0 24 29.8"><defs><style>.cls-1,.cls-2{fill:none;}.cls-2{clip-rule:evenodd;}.cls-3{clip-path:url(#clip-path);}.cls-4{clip-path:url(#clip-path-2);}.cls-5{fill:#4a4a4a;}.cls-6{clip-path:url(#clip-path-3);}.cls-7{clip-path:url(#clip-path-5);}.cls-8{clip-path:url(#clip-path-7);}.cls-9{clip-path:url(#clip-path-9);}.cls-10{clip-path:url(#clip-path-11);}</style><clipPath id="clip-path"><path class="cls-1" d="M12,9a23.22,23.22,0,0,0,8-1.19L18.39,24.62S17.7,26.56,12,26.56s-6.43-1.94-6.43-1.94L3.87,7.81A22.94,22.94,0,0,0,12,9ZM6.42,24.33a2.12,2.12,0,0,0,.61.46,10.75,10.75,0,0,0,4.93.86,10.75,10.75,0,0,0,4.93-.86,2.12,2.12,0,0,0,.6-.45L19,9.16a27.66,27.66,0,0,1-7,.79,27.46,27.46,0,0,1-7.08-.82ZM4,8.83l0-.47L4.4,8l.43.14.1,1Q4.42,9,4,8.83Z"/></clipPath><clipPath id="clip-path-2"><rect class="cls-1" x="3.24" y="3.24" width="18.14" height="23.97"/></clipPath><clipPath id="clip-path-3"><path class="cls-1" d="M14.19,5.91c-.7,0-1.43-.08-2.19-.08s-1.64,0-2.4.09V5.69a1.6,1.6,0,0,1,.09-.53c.74-.05,1.51-.08,2.31-.08s1.42,0,2.09.06a1.6,1.6,0,0,1,.1.55ZM15,6V5.7s0-.09,0-.14a2.29,2.29,0,0,0,0-.35c3.37.31,5.76,1.15,5.76,2.3,0,1.47-3.9,2.43-8.76,2.43S3.24,9,3.24,7.51c0-1.13,2.29-2,5.55-2.28a2.29,2.29,0,0,0,0,.32s0,.09,0,.14V6C6,6.29,4.07,6.92,4.07,7.51c0,.8,3.58,1.68,7.93,1.68s7.93-.88,7.93-1.68C19.93,6.91,17.89,6.26,15,6Z"/></clipPath><clipPath id="clip-path-5"><path class="cls-1" d="M7.58,14.1l.84,8.61a.42.42,0,0,0,.83-.08L8.41,14a.42.42,0,0,0-.83.08Z"/></clipPath><clipPath id="clip-path-7"><path class="cls-1" d="M15.51,14l-.84,8.61a.42.42,0,0,0,.83.08l.84-8.61a.42.42,0,0,0-.83-.08Z"/></clipPath><clipPath id="clip-path-9"><path class="cls-1" d="M11.55,14.26v8.83a.42.42,0,0,0,.84,0V14.26a.42.42,0,0,0-.84,0Z"/></clipPath><clipPath id="clip-path-11"><path class="cls-2" d="M12.52,4.06H11.27A1.65,1.65,0,0,0,9.6,5.69V6.93H8.76c0-.41,0-1.23,0-1.23s0-.09,0-.14a2.34,2.34,0,0,1,2.36-2.32h1.54A2.34,2.34,0,0,1,15,5.56s0,.09,0,.14,0,.82,0,1.23h-.84V5.69A1.65,1.65,0,0,0,12.52,4.06Z"/></clipPath></defs><title>Asset 11</title><g id="Layer_2" data-name="Layer 2"><g id="Layer_2-2" data-name="Layer 2"><g class="cls-3"><g class="cls-4"><rect class="cls-5" x="0.63" y="4.57" width="22.66" height="25.23"/></g></g><g class="cls-6"><g class="cls-4"><rect class="cls-5" y="1.85" width="24" height="11.34"/></g></g><g class="cls-7"><g class="cls-4"><rect class="cls-5" x="4.34" y="10.41" width="8.15" height="15.91"/></g></g><g class="cls-8"><g class="cls-4"><rect class="cls-5" x="11.44" y="10.41" width="8.15" height="15.91"/></g></g><g class="cls-9"><g class="cls-4"><rect class="cls-5" x="8.31" y="10.61" width="7.31" height="16.12"/></g></g><g class="cls-10"><g class="cls-4"><rect class="cls-5" x="5.52" width="12.74" height="10.17"/></g></g></g></g></svg>