<svg xmlns="http://www.w3.org/2000/svg" viewBox="0 0 52.39 23.12"><defs><style>.cls-1{fill:#4559bf;}.cls-2{fill:#ff8500;}.cls-3{fill:#4ba000;}.cls-4{fill:#ff3b30;}.cls-5{fill:#007aff;}.cls-6{fill:#4c4c4c;}</style></defs><title>Asset 8</title><g id="Layer_2" data-name="Layer 2"><g id="Layer_2-2" data-name="Layer 2"><path class="cls-1" d="M36.57,9.92h6.32v3.32H36.57Z"/><path class="cls-2" d="M28.88,8.26V5h6.31V8.26Z"/><path class="cls-3" d="M36.59,5h6.28V8.28H36.59Z"/><path class="cls-2" d="M28.88,9.93h6.28v3.31H28.88Z"/><path class="cls-4" d="M27.54,5V8.31h-6.3V5Z"/><path class="cls-5" d="M27.49,9.9v3.36H21.24V9.9Z"/><path class="cls-6" d="M47.09,22.72c-.18.28-.79.38-1.2.38q-20.18,0-40.36,0A5.33,5.33,0,0,1,0,17.55c0-.94,0-1.89,0-3.05H4V3.8H6.55V9.08H8.31l.17-2.34L10.9,6.6V.09L12.71,0V6.63h3.34V9.57l-1.16.33v4.6h37.5C50.51,17.45,48.83,20.11,47.09,22.72Z"/></g></g></svg>